De Tegenpartij ~De Hele Teringzooi~

We kennen ze nog wel: F. Jacobse en Tedje Van Es, de twee hoofdfiguren vertolkt door Kees Van Kooten en Wim De Bie. Het duo welke begin jaren tachtig zich op ludieke wijze vestigde tegen de toenmalige politieke orde van Nederland. Met leuzen als "Geen gezeik iedereen rijk", "Samen Voor Ons Eigen" en "Mag Ik Eve Overgeve" maakten zij serieuze campagne voor hun rechtse partij 'De Tegenpartij'. We volgen dit duo tot en met hun tragisch einde. Deze rip bevat ook nog niet eerder uitgezonden beelden, 2,5 uur teringzooi om van te smullen.

Format                           : AVI
Format/Info                      : Audio Video Interleave
Format profile                   : OpenDML
File size                        : 2.32 GiB
Duration                         : 25mn 58s
Overall bit rate                 : 12.8 Mbps
Movie name                       : DE_TEGENPARTIJ.Title1.DVDRip
Writing application              : Lavf52.33.0
Original source form/Name        : DE_TEGENPARTIJ

Video
ID                               : 0
Format                           : xvid
Codec ID                         : xvid
Duration                         : 25mn 58s
Bit rate                         : 1 987 Kbps
Width                            : 720 pixels
Height                           : 552 pixels
Display aspect ratio             : 4:3
Frame rate                       : 25.000 fps
Bits/(Pixel*Frame)               : 0.200
Stream size                      : 369 MiB (16%)

Audio
ID                               : 1
Format                           : AC-3
Format/Info                      : Audio Coding 3
Mode extension                   : CM (complete main)
Codec ID                         : 2000
Duration                         : 20mn 34s
Bit rate mode                    : Constant
Bit rate                         : 192 Kbps
Channel(s)                       : 2 channels
Channel positions                : Front: L R
Sampling rate                    : 48.0 KHz
Bit depth                        : 16 bits
Stream size                      : 28.3 MiB (1%)
Alignment                        : Aligned on interleaves
Interleave, duration             : 40 ms (1.01 video frame)

Veel plezier.


N.B. Deze rip is niet ondertiteld dus minder geschikt van doven en slechthorenden.
